<?xml version="1.0" encoding="utf-8"?>
<!-- Generator: Adobe Illustrator 16.0.0, SVG Export Plug-In . SVG Version: 6.00 Build 0)  -->
<!DOCTYPE svg PUBLIC "-//W3C//DTD SVG 1.1//EN" "http://www.w3.org/Graphics/SVG/1.1/DTD/svg11.dtd">
<svg version="1.1" id="iconBg" xmlns="http://www.w3.org/2000/svg" xmlns:xlink="http://www.w3.org/1999/xlink" x="0px" y="0px"
	 width="1000px" height="100px" viewBox="0 0 1000 100" enable-background="new 0 0 1000 100" xml:space="preserve">
<g>
	<g>
		<path fill="#FFFFFF" d="M0,50v50h50C22.386,100,0,77.614,0,50z"/>
	</g>
	<g>
		<path fill="#FFFFFF" d="M50,0H0v50C0,22.386,22.386,0,50,0z"/>
	</g>
	<g>
		<path fill="#FFFFFF" d="M50,0c27.614,0,50,22.386,50,50V0H50z"/>
	</g>
	<g>
		<path fill="#FFFFFF" d="M50,100h50V50C100,77.614,77.614,100,50,100z"/>
	</g>
</g>
<g>
	<g>
		<path fill="#FFFFFF" d="M100,50v50h50C122.386,100,100,77.614,100,50z"/>
	</g>
	<g>
		<path fill="#FFFFFF" d="M150,0h-50v50C100,22.386,122.386,0,150,0z"/>
	</g>
	<g>
		<path fill="#FFFFFF" d="M150,0c27.614,0,50,22.386,50,50V0H150z"/>
	</g>
	<g>
		<path fill="#FFFFFF" d="M150,100h50V50C200,77.614,177.614,100,150,100z"/>
	</g>
</g>
<g>
	<g>
		<path fill="#FFFFFF" d="M200,50v50h50C222.386,100,200,77.614,200,50z"/>
	</g>
	<g>
		<path fill="#FFFFFF" d="M250,0h-50v50C200,22.386,222.386,0,250,0z"/>
	</g>
	<g>
		<path fill="#FFFFFF" d="M250,0c27.614,0,50,22.386,50,50V0H250z"/>
	</g>
	<g>
		<path fill="#FFFFFF" d="M250,100h50V50C300,77.614,277.614,100,250,100z"/>
	</g>
</g>
<g>
	<g>
		<path fill="#FFFFFF" d="M300,50v50h50C322.386,100,300,77.614,300,50z"/>
	</g>
	<g>
		<path fill="#FFFFFF" d="M350,0h-50v50C300,22.386,322.386,0,350,0z"/>
	</g>
	<g>
		<path fill="#FFFFFF" d="M350,0c27.614,0,50,22.386,50,50V0H350z"/>
	</g>
	<g>
		<path fill="#FFFFFF" d="M350,100h50V50C400,77.614,377.614,100,350,100z"/>
	</g>
</g>
<g>
	<g>
		<path fill="#FFFFFF" d="M400,50v50h50C422.386,100,400,77.614,400,50z"/>
	</g>
	<g>
		<path fill="#FFFFFF" d="M450,0h-50v50C400,22.386,422.386,0,450,0z"/>
	</g>
	<g>
		<path fill="#FFFFFF" d="M450,0c27.614,0,50,22.386,50,50V0H450z"/>
	</g>
	<g>
		<path fill="#FFFFFF" d="M450,100h50V50C500,77.614,477.614,100,450,100z"/>
	</g>
</g>
<g>
	<g>
		<path fill="#FFFFFF" d="M500,50v50h50C522.386,100,500,77.614,500,50z"/>
	</g>
	<g>
		<path fill="#FFFFFF" d="M550,0h-50v50C500,22.386,522.386,0,550,0z"/>
	</g>
	<g>
		<path fill="#FFFFFF" d="M550,0c27.614,0,50,22.386,50,50V0H550z"/>
	</g>
	<g>
		<path fill="#FFFFFF" d="M550,100h50V50C600,77.614,577.614,100,550,100z"/>
	</g>
</g>
<g>
	<g>
		<path fill="#FFFFFF" d="M600,50v50h50C622.386,100,600,77.614,600,50z"/>
	</g>
	<g>
		<path fill="#FFFFFF" d="M650,0h-50v50C600,22.386,622.386,0,650,0z"/>
	</g>
	<g>
		<path fill="#FFFFFF" d="M650,0c27.614,0,50,22.386,50,50V0H650z"/>
	</g>
	<g>
		<path fill="#FFFFFF" d="M650,100h50V50C700,77.614,677.614,100,650,100z"/>
	</g>
</g>
<g>
	<g>
		<path fill="#FFFFFF" d="M700,50v50h50C722.386,100,700,77.614,700,50z"/>
	</g>
	<g>
		<path fill="#FFFFFF" d="M750,0h-50v50C700,22.386,722.386,0,750,0z"/>
	</g>
	<g>
		<path fill="#FFFFFF" d="M750,0c27.614,0,50,22.386,50,50V0H750z"/>
	</g>
	<g>
		<path fill="#FFFFFF" d="M750,100h50V50C800,77.614,777.614,100,750,100z"/>
	</g>
</g>
<g>
	<g>
		<path fill="#FFFFFF" d="M800,50v50h50C822.386,100,800,77.614,800,50z"/>
	</g>
	<g>
		<path fill="#FFFFFF" d="M850,0h-50v50C800,22.386,822.386,0,850,0z"/>
	</g>
	<g>
		<path fill="#FFFFFF" d="M850,0c27.614,0,50,22.386,50,50V0H850z"/>
	</g>
	<g>
		<path fill="#FFFFFF" d="M850,100h50V50C900,77.614,877.614,100,850,100z"/>
	</g>
</g>
<g>
	<path fill="#FFFFFF" d="M900,50v50h50C922.386,100,900,77.614,900,50z"/>
</g>
<g>
	<path fill="#FFFFFF" d="M950,0h-50v50C900,22.386,922.386,0,950,0z"/>
</g>
<g>
	<path fill="#FFFFFF" d="M950,0c27.614,0,50,22.386,50,50V0H950z"/>
</g>
<g>
	<path fill="#FFFFFF" d="M950,100h50V50C1000,77.614,977.614,100,950,100z"/>
</g>
<g>
	<path fill="#FFFFFF" d="M49.059,35.869h-0.092l-5.199,2.806l-0.782-3.083l6.533-3.496h3.45V62h-3.91V35.869z"/>
</g>
<g>
	<path fill="#FFFFFF" d="M140.271,62v-2.484l3.174-3.082c7.637-7.269,11.087-11.133,11.133-15.642c0-3.036-1.472-5.843-5.935-5.843
		c-2.714,0-4.969,1.38-6.349,2.53l-1.288-2.852c2.07-1.748,5.015-3.037,8.465-3.037c6.44,0,9.155,4.417,9.155,8.695
		c0,5.521-4.002,9.983-10.305,16.056l-2.392,2.208v0.092h13.434V62H140.271z"/>
</g>
<g>
	<path fill="#FFFFFF" d="M241.237,57.354c1.15,0.736,3.819,1.886,6.625,1.886c5.199,0,6.809-3.312,6.763-5.797
		c-0.046-4.187-3.818-5.98-7.729-5.98h-2.254v-3.037h2.254c2.944,0,6.671-1.518,6.671-5.061c0-2.392-1.518-4.508-5.245-4.508
		c-2.392,0-4.692,1.058-5.98,1.978l-1.058-2.944c1.564-1.15,4.601-2.3,7.821-2.3c5.889,0,8.557,3.497,8.557,7.131
		c0,3.083-1.84,5.705-5.521,7.039v0.092c3.681,0.736,6.671,3.497,6.671,7.683c0,4.784-3.727,8.971-10.903,8.971
		c-3.358,0-6.303-1.058-7.775-2.024L241.237,57.354z"/>
</g>
<g>
	<path fill="#FFFFFF" d="M352.785,62v-8.143h-13.894v-2.668l13.342-19.092h4.371v18.586h4.186v3.174h-4.186V62H352.785z
		 M352.785,50.683V40.7c0-1.564,0.046-3.128,0.138-4.693h-0.138c-0.92,1.749-1.656,3.037-2.484,4.417l-7.315,10.167v0.092H352.785z"
		/>
</g>
<g>
	<path fill="#FFFFFF" d="M458.122,35.501h-11.41l-1.15,7.683C446.252,43.092,446.896,43,448,43c2.3,0,4.6,0.506,6.44,1.61
		c2.346,1.334,4.279,3.911,4.279,7.683c0,5.843-4.647,10.213-11.133,10.213c-3.267,0-6.027-0.92-7.453-1.84l1.012-3.083
		c1.242,0.736,3.681,1.656,6.395,1.656c3.819,0,7.085-2.484,7.085-6.487c-0.046-3.864-2.622-6.625-8.603-6.625
		c-1.702,0-3.036,0.184-4.14,0.322l1.932-14.354h14.308V35.501z"/>
</g>
<g>
	<path fill="#FFFFFF" d="M557.34,34.949c-0.828-0.046-1.887,0-3.037,0.184c-6.349,1.058-9.707,5.705-10.396,10.627h0.138
		c1.427-1.886,3.91-3.451,7.223-3.451c5.29,0,9.017,3.819,9.017,9.661c0,5.475-3.727,10.535-9.937,10.535
		c-6.396,0-10.581-4.968-10.581-12.743c0-5.889,2.116-10.535,5.061-13.479c2.484-2.438,5.797-3.957,9.568-4.417
		c1.197-0.184,2.209-0.23,2.945-0.23V34.949z M556.189,52.201c0-4.278-2.438-6.854-6.165-6.854c-2.438,0-4.692,1.518-5.796,3.68
		c-0.277,0.46-0.461,1.058-0.461,1.794c0.092,4.922,2.347,8.557,6.579,8.557C553.843,59.378,556.189,56.479,556.189,52.201z"/>
</g>
<g>
	<path fill="#FFFFFF" d="M659.686,32.097v2.668L646.666,62h-4.187l12.974-26.453v-0.092h-14.63v-3.358H659.686z"/>
</g>
<g>
	<path fill="#FFFFFF" d="M739.903,54.409c0-3.772,2.255-6.441,5.935-8.005l-0.046-0.138c-3.312-1.564-4.738-4.14-4.738-6.717
		c0-4.738,4.003-7.959,9.247-7.959c5.797,0,8.695,3.635,8.695,7.361c0,2.53-1.242,5.245-4.924,6.993v0.138
		c3.727,1.472,6.027,4.095,6.027,7.729c0,5.199-4.463,8.695-10.167,8.695C743.676,62.506,739.903,58.78,739.903,54.409z
		 M756.006,54.225c0-3.634-2.531-5.383-6.58-6.533c-3.496,1.012-5.382,3.312-5.382,6.165c-0.138,3.037,2.162,5.705,5.98,5.705
		C753.659,59.562,756.006,57.308,756.006,54.225z M744.872,39.273c0,2.99,2.254,4.601,5.704,5.521
		c2.576-0.874,4.555-2.714,4.555-5.429c0-2.392-1.426-4.876-5.061-4.876C746.712,34.489,744.872,36.697,744.872,39.273z"/>
</g>
<g>
	<path fill="#FFFFFF" d="M842.617,59.147c0.875,0.092,1.887,0,3.268-0.138c2.346-0.322,4.554-1.288,6.256-2.898
		c1.979-1.794,3.404-4.417,3.957-7.959h-0.139c-1.656,2.024-4.049,3.22-7.039,3.22c-5.383,0-8.832-4.048-8.832-9.155
		c0-5.659,4.094-10.627,10.213-10.627s9.891,4.969,9.891,12.605c0,6.579-2.208,11.179-5.152,14.032
		c-2.301,2.254-5.475,3.634-8.695,4.002c-1.472,0.23-2.76,0.276-3.727,0.23V59.147z M844.09,41.942c0,3.726,2.254,6.349,5.75,6.349
		c2.715,0,4.831-1.334,5.889-3.128c0.23-0.368,0.369-0.828,0.369-1.472c0-5.106-1.887-9.017-6.119-9.017
		C846.528,34.673,844.09,37.709,844.09,41.942z"/>
</g>
<g>
	<path fill="#FFFFFF" d="M937.26,35.869h-0.092l-5.199,2.806l-0.781-3.083l6.533-3.496h3.449V62h-3.91V35.869z"/>
	<path fill="#FFFFFF" d="M971.944,46.726c0,10.167-3.772,15.78-10.397,15.78c-5.842,0-9.799-5.475-9.891-15.366
		c0-10.029,4.324-15.55,10.396-15.55C968.355,31.59,971.944,37.203,971.944,46.726z M955.705,47.187
		c0,7.775,2.392,12.191,6.072,12.191c4.141,0,6.119-4.831,6.119-12.468c0-7.361-1.887-12.191-6.073-12.191
		C958.281,34.719,955.705,39.043,955.705,47.187z"/>
</g>
</svg>
