<?xml version="1.0" encoding="utf-8"?>
<!-- Generator: Adobe Illustrator 16.0.0, SVG Export Plug-In . SVG Version: 6.00 Build 0)  -->
<!DOCTYPE svg PUBLIC "-//W3C//DTD SVG 1.1//EN" "http://www.w3.org/Graphics/SVG/1.1/DTD/svg11.dtd">
<svg version="1.1" xmlns="http://www.w3.org/2000/svg" xmlns:xlink="http://www.w3.org/1999/xlink" x="0px" y="0px" width="1170px"
	 height="900px" viewBox="0 0 1170 900" enable-background="new 0 0 1170 900" xml:space="preserve">
<g id="content">
	<path fill="#FFFFFF" d="M511.897,214h-59.57v178h59.57c10.406,0,19.684-2.99,27.846-8.539s14.572-12.862,19.261-21.716
		c9.376-17.693,14.064-37.277,14.064-58.613c0-30.021-5.252-52.241-15.758-67.082C546.803,221.209,531.68,214,511.897,214z"/>
	<path fill="#FFFFFF" d="M585.042,15.791c-163.729,0-296.916,133.411-296.916,297.126C288.126,476.619,421.283,610,584.957,610
		h0.028c79.331,0,153.901-31.09,209.961-87.15c56.073-56.074,86.941-130.736,86.928-210.066
		c0.014-79.288-30.854-153.898-86.913-209.971C738.9,46.739,664.344,15.791,585.042,15.791z M575.412,336.387
		c-2.613,10.76-6.467,20.828-11.593,30.19c-5.125,9.362-12.186,17.01-21.209,22.729c-9.023,5.733-19.26,8.694-30.712,8.694h-65.57
		V207h65.57c11.268,0,21.125,2.28,29.54,6.516c8.417,4.265,14.969,9.676,19.656,16.087c4.688,6.412,8.5,14.186,11.438,23.195
		c4.519,14.572,6.777,29.474,6.777,44.667C579.309,312.646,578.009,325.641,575.412,336.387z M738.327,215.104
		c-2-0.338-4.599-0.607-6.76-0.791c-2.175-0.169-4.621-0.381-7.488-0.649c-2.867-0.254-5.954-0.508-9.329-0.777
		c-3.39-0.268-6.804-0.466-10.263-0.649c-10.421-0.523-17.614-0.777-21.597-0.777c-13.542,0-24.198,2.429-32.022,7.287
		c-16.662,10.407-24.978,38.351-24.978,83.806c0,60.38,19.079,90.57,57.261,90.57c16.126,0,31.881-0.776,47.498-2.33l7.678-0.791
		v3.643c-20,3.812-38.912,5.733-55.561,5.733c-42.164,0-63.195-32.449-63.195-97.348c0-16.14,0.851-29.711,2.518-40.724
		c1.638-11.028,4.733-21.04,9.251-30.078c8.839-17.34,25.9-26.01,51.417-26.01c14.742,0,33.568,2.076,55.568,6.241V215.104z"/>
	<path fill="#FFFFFF" d="M-9.673-10v920h1190V-10H-9.673z M223.072,799.137c-0.664,3.812-1.765,7.568-3.305,11.268
		c-1.538,3.7-3.431,6.949-5.662,9.716c-2.246,2.783-5.098,4.836-8.558,6.529c-3.474,1.694-7.328,2.351-11.579,2.351h-30.642v-84
		h30.642c6.411,0,11.649,1.27,15.745,4.121c4.151,2.938,7.159,6.368,9.009,10.464c2.161,4.702,3.516,8.804,4.052,12.335
		c0.848,5.719,1.271,10.714,1.271,15.033C224.046,791.274,223.721,795.324,223.072,799.137z M291.327,751h-35.806
		c-3.008,0-5.199,0.867-6.356,2.295c-1.158,1.424-1.837,3.677-1.837,6.444v24.175l39,0.933v5.082l-39,0.934v24.287
		c0,3.629,1.103,5.875,3.108,6.877c1.554,0.691,3.688,0.974,6.244,0.974h34.648v5l-34.648,2c-0.622,0-1.426,0-2.43,0
		c-1.001,0-2.245-0.266-3.713-0.535c-1.454-0.268-2.817-0.944-4.427-1.862c-3.319-2.005-4.782-6.198-4.782-12.453v-55.41
		c0-5.309,1.138-9.007,3.792-11.352c2.669-2.358,5.699-3.388,9.469-3.388c0.311,0,0.622,0,0.932,0l35.806,1.326V751z M342.971,829
		h-7.061l-29.964-84h7.286l26.265,74.728L367.032,745h7.173L342.971,829z M448.467,803.712c-0.621,4.546-1.582,8.359-2.896,11.438
		c-1.313,3.093-2.767,5.619-4.392,7.583c-1.624,1.963-3.741,3.459-6.368,4.447c-4.391,1.78-10.251,2.669-17.58,2.669
		c-10.407,0-17.538-1.51-21.393-4.504c-3.939-3.022-6.637-7.174-8.105-12.512c-1.779-6.467-2.655-14.91-2.655-25.331
		c0-5.466,0.268-10.395,0.805-14.744c0.537-4.349,1.256-8.048,2.146-11.098c0.875-3.05,2.075-5.648,3.586-7.822
		c1.497-2.148,3.064-3.841,4.673-5.084c1.625-1.229,3.629-2.203,6.016-2.88c3.94-1.159,8.218-1.753,12.85-1.753
		c4.618,0,8.049,0.113,10.294,0.354c2.231,0.24,4.548,0.691,6.934,1.399c2.4,0.677,4.377,1.651,5.959,2.88
		c1.581,1.243,3.121,2.936,4.632,5.084c1.497,2.174,2.683,4.743,3.529,7.766c1.921,6.694,2.896,14.263,2.896,22.664
		C449.398,792.67,449.088,799.15,448.467,803.712z M529.327,829h-6.953l-47.047-71.916V829h-7v-84h6.969l47.031,72.013V745h7V829z
		 M635.327,751.647c-1-0.069-2.408-0.155-3.496-0.238c-1.073-0.071-2.285-0.142-3.71-0.227c-1.426-0.07-2.971-0.17-4.666-0.282
		c-1.694-0.113-3.334-0.212-4.959-0.297c-3.784-0.155-7.125-0.226-10.063-0.226c-5.324,0-9.471,1.002-12.479,3.008
		c-6.101,4.009-9.148,15.221-9.148,33.663c0,24.288,7.216,36.432,21.633,36.432c7.64,0,16.035-0.311,25.369-0.933l1.52-0.111v5.097
		c-4,0.692-8.424,1.285-13.903,1.793c-5.479,0.508-9.783,0.749-13.031,0.749c-18.809,0-28.204-14.419-28.204-43.252
		c0-17.736,2.793-29.654,8.342-35.754c4.477-4.858,11.119-7.286,19.901-7.286c3.008,0,7.184,0.282,12.706,0.876
		c5.507,0.565,10.188,1.243,14.188,2.004V751.647z M710.327,829h-6v-37h-44v37h-7v-84h7v40h44v-40h6V829z M792.327,792.358
		c0,15.122-2.375,25.263-7.389,30.43c-1.781,1.85-3.306,3.233-4.732,4.166c-1.426,0.932-3.34,1.63-5.812,2.108
		c-3.162,0.609-7.14,0.938-11.997,0.938h-1.27c-9.096,0-15.067-0.994-17.92-2.914c-1.313-0.932-2.824-2.297-4.519-4.104
		c-1.694-1.822-3.181-4.044-4.026-6.671c-2.09-6.551-3.336-14.535-3.336-23.953V745h7v47.358c0,13.047,1.67,21.449,4.988,25.221
		c1.23,1.467,2.348,2.598,3.351,3.359c1.778,1.384,4.942,1.977,9.49,2.134c1.229,0.083,3.12-0.072,5.663-0.072h0.578
		c5.635,0,9.235-0.126,10.817-0.747c1.581-0.608,2.979-1.194,4.165-1.928c1.199-0.721,2.16-1.579,2.895-2.623
		c0.734-1.032,1.512-2.321,2.317-3.903c0.803-1.58,1.599-3.35,2.063-5.368c1.004-4.618,1.672-9.973,1.672-16.072V745h6V792.358z
		 M585.327,615.37v-2.896l-0.199,2.896c-166.864,0-302.706-135.772-302.706-302.664C282.422,145.8,418.163,10,585.057,10
		c80.885,0.015,156.859,31.504,214.02,88.665c57.146,57.175,88.697,133.173,88.683,214.014
		c0.015,80.869-31.387,156.881-88.548,214.042C742.052,583.882,666.327,615.37,585.327,615.37z M860.607,829l-18.047-35.321
		c-1.073,0-5.662-0.145-13.371-0.598c-7.71-0.466-11.862-0.638-11.862-0.723V829h-6v-84h34.482c13.188,0,19.782,8.062,19.782,24.485
		c0,4.178-0.409,7.723-1.214,10.801c-0.82,3.093-1.779,5.415-2.895,7.024c-1.13,1.623-2.485,2.919-4.11,3.907
		c-2.315,1.398-4.898,2.004-7.751,2.229L867.781,829H860.607z M934.327,751.647c-1-0.069-2.342-0.155-3.429-0.238
		c-1.074-0.071-2.253-0.142-3.677-0.227c-1.428-0.07-2.955-0.17-4.648-0.282c-1.696-0.113-3.328-0.212-4.952-0.297
		c-3.784-0.155-7.121-0.226-10.059-0.226c-5.323,0-9.47,1.002-12.477,3.008c-6.101,4.009-9.147,15.221-9.147,33.663
		c0,24.288,7.216,36.432,21.633,36.432c7.64,0,15.968-0.311,25.304-0.933l1.452-0.111v5.097c-4,0.692-8.357,1.285-13.835,1.793
		c-5.479,0.508-9.751,0.749-12.999,0.749c-18.807,0-28.187-14.419-28.187-43.252c0-17.736,2.801-29.654,8.352-35.754
		c4.476-4.858,11.121-7.286,19.904-7.286c3.008,0,7.12,0.282,12.642,0.876c5.507,0.565,10.123,1.243,14.123,2.004V751.647z
		 M1010.327,829h-7v-37h-44v37h-7v-84h7v40h44v-40h7V829z"/>
	<path fill="#FFFFFF" d="M437.65,757.606c-0.735-1.271-1.724-2.33-2.952-3.176c-1.229-0.848-2.373-1.525-3.417-2.033
		c-1.031-0.496-2.4-0.862-4.095-1.102c-2.626-0.382-5.748-0.565-9.376-0.565s-6.326,0.07-8.091,0.227
		c-1.778,0.155-3.826,0.578-6.142,1.271c-2.301,0.692-4.039,1.836-5.196,3.417c-1.158,1.58-2.33,3.7-3.53,6.355
		c-1.2,2.653-2.019,6.112-2.485,10.363c-0.465,4.236-0.692,8.98-0.692,14.22c0,5.238,0.127,9.546,0.396,12.892
		c0.268,3.361,0.706,6.327,1.271,8.91c0.579,2.586,1.397,4.73,2.443,6.426c1.031,1.694,2.174,3.121,3.402,4.278
		c1.229,1.157,2.782,2.006,4.632,2.541c3.388,1.088,7.484,1.626,12.256,1.626c4.788,0,8.473-0.256,11.058-0.764
		c2.57-0.494,4.942-1.455,7.103-2.881c2.16-1.427,3.827-3.502,4.984-6.185c2.386-5.564,3.587-14.149,3.587-25.813
		c0-12.088-1.003-20.53-3.007-25.332C439.09,760.445,438.384,758.878,437.65,757.606z"/>
	<path fill="#FFFFFF" d="M856.217,782.732c1.777-2.854,2.654-7.473,2.654-13.799c0-3.475-0.367-6.504-1.088-9.06
		c-0.733-2.541-1.765-4.592-3.078-5.751c-2.386-1.934-5.353-3.123-8.896-3.123h-28.482v36h28.482
		C851.048,787,854.521,785.514,856.217,782.732z"/>
	<path fill="#FFFFFF" d="M193.969,751h-23.642v72h23.642c4.011,0,7.569-1.215,10.647-3.219c3.078-2.006,5.55-4.83,7.399-8.219
		c3.629-6.777,5.437-15.045,5.437-24.379C217.452,763.206,209.628,751,193.969,751z"/>
</g>
<g id="shadow">
	<linearGradient id="SVGID_1_" gradientUnits="userSpaceOnUse" x1="949.8584" y1="677.2871" x2="613.757" y2="341.1857">
		<stop  offset="0" style="stop-color:#CCCCCC;stop-opacity:0"/>
		<stop  offset="0.8619" style="stop-color:#CCCCCC;stop-opacity:0.8619"/>
		<stop  offset="1" style="stop-color:#CCCCCC"/>
	</linearGradient>
	<path opacity="0.5" fill="url(#SVGID_1_)" d="M825.943,129.422c40.037,52.427,61.731,116.168,61.72,183.256
		c0.015,80.869-31.291,156.881-88.452,214.042c-57.159,57.162-132.884,88.65-213.884,88.65v-2.896l-0.199,2.896
		c-68.266,0-131.402-22.734-182.089-61.017l336.356,336.426l423.953-423.959L825.943,129.422z"/>
	<linearGradient id="SVGID_2_" gradientUnits="userSpaceOnUse" x1="512.6973" y1="392" x2="512.6973" y2="214">
		<stop  offset="0" style="stop-color:#CCCCCC;stop-opacity:0"/>
		<stop  offset="1" style="stop-color:#CCCCCC;stop-opacity:0.5"/>
	</linearGradient>
	<path opacity="0.5" fill="url(#SVGID_2_)" d="M539.743,383.461c8.162-5.549,14.572-12.862,19.261-21.716
		c9.376-17.693,14.064-37.277,14.064-58.613c0-30.021-5.252-52.241-15.758-67.082C546.803,221.209,531.68,214,511.897,214h-59.57
		v178h59.57C522.303,392,531.581,389.01,539.743,383.461z"/>
	<g>
		<linearGradient id="SVGID_3_" gradientUnits="userSpaceOnUse" x1="662.7349" y1="606.8633" x2="662.7349" y2="211.4609">
			<stop  offset="0" style="stop-color:#CCCCCC;stop-opacity:0"/>
			<stop  offset="1" style="stop-color:#CCCCCC;stop-opacity:0.5"/>
		</linearGradient>
		<path opacity="0.5" fill="url(#SVGID_3_)" d="M738.327,215.104c-2-0.338-4.599-0.607-6.76-0.791
			c-2.175-0.169-4.621-0.381-7.488-0.649c-2.867-0.254-5.954-0.508-9.329-0.777c-3.39-0.268-6.804-0.466-10.263-0.649
			c-10.421-0.523-17.614-0.777-21.597-0.777c-13.542,0-24.198,2.429-32.022,7.287c-16.662,10.407-24.978,38.351-24.978,83.806
			c0,60.38,19.079,90.57,57.261,90.57c16.126,0,31.881-0.776,47.498-2.33l7.678-0.791v3.643c-20,3.812-38.912,5.733-55.561,5.733
			c-42.164,0-63.195-32.449-63.195-97.348c0-5.058,0.114-9.862,0.275-14.415l-63.091-63.094l-0.188-0.093
			c1.654,1.664,3.176,3.406,4.522,5.247c4.688,6.412,8.502,14.149,11.44,23.159c4.519,14.572,6.778,29.456,6.778,44.649
			c0,15.18-1.299,28.157-3.896,38.903c-2.613,10.76-6.467,20.828-11.593,30.19c-5.126,9.362-12.186,17.01-21.209,22.729
			c-9.023,5.733-19.26,8.694-30.712,8.694H446.25l204.415,204.336c54.243-12.181,104.034-39.448,144.282-79.697
			c46.558-46.558,75.718-105.863,84.273-170.058l-140.893-140.81V215.104z"/>
	</g>
</g>
</svg>
